<?xml version="1.0" standalone="no"?>
<!DOCTYPE svg PUBLIC "-//W3C//DTD SVG 20010904//EN"
 "http://www.w3.org/TR/2001/REC-SVG-20010904/DTD/svg10.dtd">
<svg version="1.0" xmlns="http://www.w3.org/2000/svg"
 width="1145.000000pt" height="1145.000000pt" viewBox="0 0 1145.000000 1145.000000"
 preserveAspectRatio="xMidYMid meet">
<metadata>
Created by potrace 1.11, written by Peter Selinger 2001-2013
</metadata>
<g transform="translate(0.000000,1145.000000) scale(0.100000,-0.100000)"
fill="#000000" stroke="none">
<path d="M4265 11430 c-4 -6 -15 -8 -25 -5 -10 3 -27 2 -37 -3 -50 -25 -199
-96 -203 -97 -20 -4 -221 -113 -261 -140 -27 -19 -51 -35 -54 -35 -10 0 -111
-69 -124 -84 -7 -9 -17 -16 -22 -16 -13 0 -99 -61 -99 -70 0 -5 -9 -11 -19
-15 -10 -3 -42 -28 -69 -55 -28 -28 -55 -50 -60 -50 -5 0 -32 -26 -60 -57 -28
-32 -70 -78 -92 -103 -23 -25 -55 -65 -71 -90 -17 -25 -38 -54 -48 -65 -9 -11
-23 -33 -31 -50 -8 -16 -18 -32 -21 -35 -4 -3 -24 -39 -46 -80 -21 -41 -43
-84 -49 -95 -6 -11 -23 -44 -37 -72 -15 -29 -38 -74 -51 -100 -23 -44 -60
-130 -62 -143 -3 -23 -17 -68 -25 -82 -5 -10 -9 -25 -9 -33 0 -8 -4 -23 -9
-33 -16 -30 -41 -123 -41 -153 0 -15 -4 -30 -9 -33 -5 -3 -11 -20 -14 -38 -3
-18 -10 -55 -16 -83 -5 -27 -10 -71 -10 -97 -1 -26 -5 -50 -11 -53 -5 -3 -10
-28 -10 -54 0 -26 -4 -51 -9 -56 -18 -19 -23 -186 -22 -780 1 -652 6 -889 21
-920 5 -11 12 -60 15 -110 3 -49 8 -126 10 -170 7 -99 21 -237 35 -330 6 -38
13 -95 16 -125 3 -30 10 -59 14 -65 4 -5 11 -50 15 -100 4 -49 11 -94 15 -100
10 -14 18 -51 35 -157 7 -47 22 -102 35 -133 5 -11 11 -38 14 -60 15 -121 28
-192 36 -207 6 -10 10 -31 10 -47 0 -17 4 -40 9 -53 5 -13 17 -59 26 -103 21
-101 36 -157 47 -170 4 -5 8 -20 8 -35 0 -14 7 -38 15 -54 8 -15 15 -38 15
-50 0 -12 4 -26 9 -31 5 -6 16 -39 25 -75 9 -36 25 -90 37 -120 11 -30 24 -68
29 -85 4 -16 11 -39 15 -50 16 -45 78 -202 91 -232 8 -17 14 -37 14 -45 0 -8
4 -18 8 -24 5 -5 15 -28 22 -51 7 -24 17 -43 21 -43 5 0 11 -17 15 -37 4 -21
10 -40 13 -43 9 -6 41 -75 41 -87 0 -5 13 -30 29 -55 16 -26 34 -62 39 -80 6
-18 13 -40 16 -49 5 -11 -3 -19 -30 -29 -20 -8 -41 -21 -48 -30 -6 -8 -22 -23
-36 -31 -37 -24 -112 -103 -134 -141 -10 -18 -27 -48 -37 -66 -11 -18 -19 -39
-19 -46 0 -7 -10 -33 -23 -57 -13 -24 -29 -64 -37 -89 -7 -25 -18 -50 -23 -57
-5 -7 -6 -17 -3 -22 4 -5 2 -12 -4 -16 -5 -3 -10 -17 -10 -30 0 -13 -4 -27
-10 -30 -5 -3 -12 -28 -16 -56 -4 -27 -11 -52 -15 -55 -5 -3 -9 -21 -9 -40 0
-19 -4 -34 -9 -34 -10 0 -17 -34 -34 -172 -7 -53 -15 -100 -19 -104 -5 -4 -8
-31 -8 -60 0 -29 -4 -56 -10 -59 -5 -3 -10 -29 -10 -56 0 -28 -5 -60 -11 -71
-8 -15 -14 -194 -20 -552 -9 -562 -14 -679 -29 -711 -10 -23 -21 -175 -20
-278 1 -38 -3 -74 -8 -80 -6 -7 -13 -48 -16 -92 -13 -181 -18 -231 -26 -240
-5 -6 -9 -51 -9 -100 1 -50 -2 -97 -6 -106 -3 -9 -8 -54 -10 -100 -11 -213
-17 -279 -25 -279 -5 0 -11 -42 -14 -92 -2 -51 -10 -155 -16 -231 -6 -76 -9
-145 -6 -153 4 -12 52 -14 281 -14 167 0 275 4 275 10 0 5 -5 32 -11 60 -6 28
-9 53 -7 56 3 2 49 20 104 39 352 126 407 139 573 133 76 -3 133 -11 165 -22
92 -33 285 -134 456 -238 60 -37 63 -38 161 -38 76 0 99 3 99 13 0 12 -9 56
-51 252 -6 28 -14 67 -19 88 -8 40 -20 61 -20 36 0 -16 18 -124 25 -149 3 -8
1 -21 -4 -29 -8 -12 -15 -10 -43 11 -56 43 -387 216 -454 238 -22 7 -70 30
-109 50 -46 25 -101 44 -161 56 -86 17 -96 17 -194 1 -59 -10 -137 -32 -184
-51 -123 -51 -351 -114 -441 -121 -115 -10 -262 -42 -318 -69 -43 -21 -49 -22
-56 -7 -7 15 6 226 28 461 5 52 14 154 20 225 6 72 13 148 16 170 4 22 11 87
17 145 5 58 14 137 18 175 5 39 13 126 19 195 6 69 16 146 22 172 7 31 12 231
13 565 2 338 7 546 14 598 28 185 61 383 76 461 55 266 174 588 256 692 50 62
182 161 216 162 28 0 28 1 127 -192 47 -92 97 -185 112 -207 14 -22 25 -44 25
-49 0 -4 7 -17 15 -28 14 -17 14 -15 1 21 -35 99 -138 500 -134 522 3 15 66
43 102 46 15 2 30 -18 64 -81 24 -46 46 -81 49 -78 3 2 -5 31 -17 64 -12 33
-20 70 -18 83 3 24 3 24 118 21 63 -2 192 -7 285 -12 178 -9 354 0 485 24 72
13 100 12 100 -4 0 -4 -9 -28 -20 -53 -14 -32 -18 -55 -13 -74 7 -27 7 -26 14
14 5 24 17 62 27 86 18 41 25 46 93 71 41 15 89 36 108 47 56 33 108 35 171 6
55 -25 99 -62 88 -73 -12 -11 -151 -14 -164 -3 -16 13 -34 -18 -34 -60 l0 -30
23 23 c21 21 35 24 143 29 65 3 135 12 154 19 66 25 136 75 175 126 21 29 41
50 43 47 2 -2 11 -59 18 -126 8 -68 17 -125 21 -128 11 -11 -5 244 -22 349 -9
58 -30 165 -46 239 -34 159 -34 154 -9 146 29 -9 58 10 133 88 197 207 347
351 420 403 45 32 105 76 132 97 28 21 83 64 123 94 40 31 71 61 69 66 -7 22
-26 17 -63 -17 -76 -69 -381 -296 -398 -296 -4 0 -22 -11 -39 -24 -56 -42
-207 -131 -340 -200 -71 -36 -141 -75 -157 -86 -15 -11 -32 -20 -37 -20 -5 0
-31 -14 -58 -31 -81 -52 -134 -67 -239 -71 -107 -4 -76 -16 -289 104 -206 115
-458 271 -497 307 -14 13 -52 44 -85 68 -33 25 -78 60 -100 79 -270 231 -339
307 -417 459 -60 118 -132 330 -153 448 -5 34 -8 36 -26 26 -42 -22 -50 -6
-47 91 3 95 15 118 32 60 5 -19 11 -28 13 -19 8 32 -118 319 -212 485 -76 133
-158 260 -237 368 -98 133 -94 116 -78 296 25 270 77 601 99 623 9 9 51 -116
51 -152 0 -11 9 -35 20 -53 11 -18 25 -51 31 -73 13 -49 101 -257 106 -252 2
2 -3 46 -11 98 -16 108 -27 362 -17 399 8 28 75 72 105 68 15 -3 24 -25 47
-117 16 -63 33 -119 39 -125 7 -7 10 32 10 120 0 71 3 138 6 149 3 11 28 34
56 50 76 45 74 57 -8 49 l-67 -7 6 324 c6 316 17 456 62 791 34 246 123 657
157 722 9 16 22 6 120 -90 116 -116 316 -347 412 -478 109 -148 364 -536 380
-578 9 -25 7 -31 -32 -64 -65 -55 -49 -73 28 -34 38 19 40 19 55 3 42 -47 80
-104 117 -178 22 -44 44 -84 48 -90 4 -5 29 -52 56 -104 75 -147 69 -95 -14
129 -22 58 -51 130 -65 161 -13 31 -28 78 -31 105 l-7 49 43 18 c24 9 50 17
59 17 45 0 302 -311 441 -535 42 -67 47 -91 21 -111 -18 -14 -14 -13 67 12 9
3 11 8 4 12 -6 4 -16 63 -23 132 -12 125 -36 250 -92 474 -29 119 -28 154 4
127 18 -14 147 -239 176 -305 12 -27 24 -47 27 -44 5 6 -39 273 -55 326 -8 27
-7 34 5 39 19 7 130 -4 149 -15 8 -4 43 -45 79 -92 35 -47 87 -112 115 -145
28 -33 99 -121 158 -195 59 -74 131 -163 160 -198 29 -35 53 -67 53 -73 0 -5
-10 -14 -22 -19 -25 -10 -254 -50 -430 -75 -58 -9 -130 -23 -158 -31 -35 -10
-69 -13 -101 -9 -42 6 -52 4 -67 -13 -9 -11 -44 -30 -77 -42 -33 -13 -75 -34
-93 -48 -25 -18 -51 -26 -99 -30 -63 -5 -65 -5 -39 -19 14 -7 26 -17 26 -22 0
-4 -27 -29 -59 -55 -55 -43 -171 -165 -171 -180 0 -15 23 -3 81 44 34 28 66
50 71 50 14 0 9 -28 -16 -103 -46 -135 -44 -180 4 -94 33 59 93 136 107 137 6
0 16 -24 23 -52 6 -29 15 -64 20 -78 4 -14 16 -52 25 -85 22 -77 61 -158 91
-186 12 -11 53 -29 91 -39 61 -16 77 -17 124 -6 107 25 254 103 284 150 14 21
35 120 35 163 0 17 -6 23 -20 23 -12 0 -34 7 -50 15 -51 26 -35 67 39 107 31
17 32 19 25 65 -4 27 -22 88 -40 138 -19 49 -30 93 -26 97 4 4 57 12 118 19
97 10 119 9 168 -5 63 -18 81 -42 72 -90 -23 -128 -52 -222 -92 -304 -25 -52
-42 -97 -39 -100 16 -16 154 167 259 346 21 34 41 62 46 62 5 0 13 -15 19 -32
11 -34 70 -319 91 -443 7 -38 23 -117 37 -175 23 -100 50 -340 73 -660 5 -80
15 -206 20 -280 25 -316 38 -717 30 -865 -5 -83 -14 -298 -20 -480 -12 -371
-24 -577 -46 -775 -26 -235 -33 -284 -48 -340 -26 -94 -1 -79 53 31 78 161
108 243 142 391 18 75 36 135 40 132 8 -5 4 -360 -6 -539 -4 -60 -15 -175 -26
-254 -11 -79 -18 -146 -15 -149 3 -3 13 12 22 34 9 21 25 59 36 82 49 109 143
370 188 522 17 58 46 155 65 215 19 61 39 130 44 155 5 25 21 99 35 165 63
291 115 673 147 1090 9 123 14 536 7 590 -2 16 4 21 30 23 38 4 37 7 16 -116
-20 -115 -17 -146 14 -150 23 -3 23 -6 18 -75 -23 -285 -46 -848 -46 -1102 1
-353 40 -540 155 -744 42 -75 181 -181 272 -207 42 -12 53 -20 53 -36 0 -14
-107 -127 -317 -337 -347 -345 -397 -390 -446 -400 -24 -5 -31 -12 -29 -27 2
-14 -17 -32 -75 -71 -100 -66 -212 -133 -224 -133 -5 0 -32 -11 -61 -24 -95
-44 -122 -54 -233 -87 -95 -28 -129 -33 -245 -37 -108 -3 -143 0 -173 13 -21
9 -95 70 -165 136 -70 66 -175 157 -234 201 -81 60 -108 86 -108 103 0 17 -9
25 -39 34 -85 25 -192 188 -226 345 -12 53 -20 74 -26 65 -10 -15 -4 -72 13
-129 18 -62 80 -183 107 -208 14 -13 25 -29 23 -36 -2 -6 0 -8 4 -3 4 4 42
-26 84 -65 42 -40 119 -106 171 -146 88 -68 95 -77 112 -130 9 -31 17 -64 17
-73 0 -9 7 -34 16 -55 17 -41 16 -41 -33 1 -6 6 -24 20 -40 32 -16 12 -44 36
-61 53 -18 16 -32 28 -32 24 0 -5 -77 51 -120 88 -111 94 -135 113 -142 110
-4 -1 -8 4 -8 12 0 8 -8 17 -19 21 -10 3 -37 27 -60 53 -23 26 -63 71 -89 100
-26 30 -55 62 -64 73 -10 10 -18 23 -18 27 0 5 -10 20 -21 33 -12 13 -26 37
-31 52 -8 21 -13 25 -19 16 -8 -14 13 -59 45 -94 10 -11 28 -36 41 -55 13 -19
36 -50 53 -68 16 -18 47 -54 68 -80 21 -26 52 -58 67 -72 16 -14 48 -43 71
-65 24 -22 78 -64 122 -94 43 -30 88 -63 99 -73 11 -10 63 -52 115 -94 52 -42
118 -97 145 -123 28 -27 60 -55 72 -63 12 -8 45 -35 72 -60 97 -89 118 -102
169 -99 26 1 58 2 72 2 30 0 148 37 155 49 3 5 29 16 58 26 28 9 57 20 62 24
22 17 193 99 237 114 83 27 349 166 463 241 61 39 135 88 165 107 30 20 67 48
82 62 15 14 32 26 38 26 15 0 181 119 255 183 114 98 244 244 377 422 37 50
92 110 122 135 30 24 53 46 51 48 -2 2 -10 0 -17 -4 -7 -5 -19 -9 -26 -10 -15
-3 -112 -102 -112 -115 0 -5 -12 -22 -27 -37 -16 -15 -41 -47 -58 -72 -16 -25
-53 -69 -82 -97 -28 -29 -49 -53 -46 -53 2 0 -21 -25 -51 -56 -31 -30 -56 -60
-56 -65 0 -5 -9 -9 -20 -9 -11 0 -20 -4 -20 -9 0 -11 -90 -101 -102 -101 -5 0
-19 -11 -32 -25 -13 -13 -25 -22 -28 -20 -3 3 -13 -4 -23 -15 -10 -11 -26 -20
-37 -20 -10 0 -18 -6 -18 -13 0 -7 -18 -21 -40 -31 -22 -10 -40 -22 -40 -27 0
-5 -5 -9 -10 -9 -6 0 -33 -15 -61 -34 -27 -19 -58 -38 -69 -41 -11 -4 -20 -10
-20 -14 0 -4 -24 -20 -54 -35 -29 -15 -63 -38 -75 -50 -12 -13 -42 -32 -67
-42 -24 -10 -44 -22 -44 -26 0 -4 -5 -8 -12 -8 -6 0 -19 -7 -29 -16 -9 -8 -23
-16 -31 -18 -7 -1 -28 -9 -47 -19 -19 -9 -45 -17 -58 -17 -14 0 -21 -4 -18
-10 3 -5 0 -10 -7 -10 -8 0 -35 -14 -61 -30 -26 -17 -52 -30 -58 -30 -5 0 -23
-10 -38 -21 -18 -13 -34 -18 -43 -14 -7 5 -10 4 -5 0 6 -8 -47 -38 -57 -32 -2
1 -12 -6 -22 -15 -11 -9 -32 -20 -49 -24 -16 -4 -32 -10 -35 -13 -8 -11 -132
-68 -184 -85 -73 -25 -133 -31 -151 -16 -8 7 -12 16 -9 21 3 5 2 14 -2 21 -4
7 -8 21 -9 32 -1 12 -6 39 -11 61 -19 81 -21 79 94 87 56 4 130 17 163 28 33
10 77 22 97 26 20 4 57 16 82 26 69 30 95 41 100 43 24 8 52 20 88 38 24 11
52 21 63 22 10 1 29 11 42 22 12 11 38 29 58 41 19 12 43 30 53 41 10 11 31
23 47 26 16 4 27 11 23 16 -3 5 1 9 9 9 7 0 24 12 38 26 14 15 31 23 42 20 10
-2 16 1 15 7 -4 16 32 51 70 68 18 8 32 21 32 31 0 11 5 15 15 12 9 -4 15 0
15 7 0 8 12 22 26 33 21 15 28 16 35 5 4 -7 11 -10 14 -7 10 10 -4 28 -21 28
-8 0 -12 5 -9 10 4 6 11 8 16 5 5 -4 9 1 9 9 0 9 5 16 10 16 6 0 10 7 10 15 0
8 8 15 18 15 20 0 52 29 52 47 0 5 25 33 55 61 30 28 55 57 55 64 0 9 3 8 10
-2 8 -12 10 -11 10 7 0 28 40 58 53 40 6 -8 7 -6 3 7 -4 13 5 28 31 52 20 19
41 34 45 34 4 0 7 4 6 8 -2 5 23 35 55 67 31 33 57 63 57 68 0 5 7 7 15 3 11
-4 15 1 15 18 0 27 29 43 42 24 6 -9 7 -6 4 8 -5 17 5 27 66 62 118 66 174 85
241 79 38 -3 70 -13 92 -29 37 -25 52 -48 36 -57 -5 -3 84 -6 197 -6 293 0
473 -18 777 -79 43 -8 183 -59 240 -86 43 -21 85 -55 151 -123 202 -206 283
-391 338 -772 52 -358 35 -843 -44 -1230 -10 -47 -19 -212 -40 -680 -8 -180
-17 -343 -40 -745 -5 -96 -12 -304 -16 -463 -8 -401 -6 -395 -77 -328 -24 23
-62 54 -83 68 -21 15 -41 29 -44 32 -6 8 -82 48 -255 138 -181 94 -267 127
-440 167 -146 34 -235 44 -423 45 -210 2 -302 -10 -537 -70 -98 -25 -112 -26
-126 -13 -10 9 -19 12 -21 7 -12 -20 -66 -258 -82 -355 l-13 -78 27 0 c24 0
26 3 24 32 l-3 33 11 -32 c9 -27 16 -33 39 -33 18 0 32 7 38 19 14 25 117 82
217 121 91 35 233 66 349 75 163 14 446 -28 622 -91 178 -64 253 -97 253 -110
0 -11 24 -14 123 -13 67 1 114 3 105 6 -10 2 -18 8 -18 13 0 11 -57 38 -89 42
-14 2 -26 8 -28 14 -2 7 8 9 27 6 36 -5 41 15 5 23 -14 3 -36 7 -50 10 -14 3
-25 12 -25 20 0 8 -7 15 -15 15 -16 0 -18 9 -15 48 1 16 -4 22 -20 22 -23 0
-65 -34 -57 -47 3 -4 -7 -9 -21 -9 -15 -1 -21 1 -13 4 10 3 8 9 -10 23 -13 10
-18 19 -11 19 10 0 10 5 2 20 -7 14 -7 20 0 20 5 0 10 7 10 16 0 11 -6 14 -20
9 -18 -6 -25 3 -21 27 0 4 -6 5 -14 1 -9 -3 -23 1 -33 10 -21 19 -110 27 -116
11 -3 -7 3 -10 15 -7 10 3 31 2 46 -2 24 -6 25 -8 10 -16 -11 -7 -24 -6 -36 1
-13 7 -22 7 -26 0 -12 -20 -23 -10 -20 18 3 22 -3 31 -26 44 -25 15 -29 15
-29 2 0 -8 -4 -13 -9 -10 -5 4 -11 0 -14 -6 -3 -10 -12 -9 -35 5 -23 13 -32
14 -35 5 -4 -9 -6 -9 -6 -1 -1 8 -10 9 -33 2 -41 -11 -38 -12 -38 6 0 23 -36
37 -50 20 -7 -8 -9 -15 -5 -15 4 0 2 -7 -5 -15 -7 -8 -26 -15 -42 -15 -16 0
-39 -5 -50 -11 -12 -7 -18 -7 -14 -1 8 13 -5 47 -13 34 -3 -5 -18 -12 -32 -15
-20 -5 -29 -2 -33 9 -4 11 -14 15 -31 12 -13 -3 -22 -2 -20 2 2 4 -2 7 -9 7
-7 0 -13 -6 -14 -14 -1 -7 -3 -20 -4 -28 -1 -17 -20 -16 -19 0 1 15 -45 24
-77 16 -15 -4 -40 -3 -55 2 -21 7 -32 6 -40 -3 -9 -10 -9 -14 1 -17 6 -3 12
-9 12 -14 0 -6 -4 -7 -10 -4 -12 8 -130 -17 -130 -27 0 -4 -19 -8 -42 -8 l-43
-1 30 -14 c17 -7 24 -14 16 -14 -12 -1 -11 -4 2 -14 16 -11 15 -14 -13 -30
-31 -19 -34 -16 -31 28 2 16 0 17 -8 5 -8 -12 -13 -12 -23 -2 -16 16 -28 15
-28 -3 0 -8 5 -15 10 -15 6 0 10 -7 10 -15 0 -8 -7 -15 -15 -15 -8 0 -14 3
-14 8 3 18 -2 32 -12 32 -6 0 -8 -7 -5 -16 3 -8 2 -12 -4 -9 -5 3 -12 -5 -16
-19 -5 -21 -9 -24 -30 -16 -21 9 -26 6 -39 -26 -8 -20 -15 -43 -15 -51 0 -8
-9 -17 -20 -20 -11 -3 -20 -12 -20 -19 0 -8 -4 -14 -10 -14 -5 0 -10 12 -10
28 0 22 -2 24 -11 12 -9 -12 -10 -12 -5 3 3 10 6 28 6 38 0 11 4 18 9 14 5 -3
9 7 9 23 -1 15 4 43 10 62 6 19 16 60 22 90 l10 55 80 27 c43 15 86 25 94 22
9 -3 16 -2 16 4 0 14 124 36 156 28 18 -5 24 -3 18 5 -5 9 4 11 34 6 23 -3 42
-2 42 3 0 7 76 15 216 24 22 2 80 -1 129 -6 50 -5 105 -9 123 -10 17 0 35 -4
38 -9 3 -5 14 -9 26 -9 33 0 158 -32 153 -40 -2 -4 15 -7 39 -7 24 -1 62 -11
84 -22 23 -12 50 -21 61 -21 11 0 23 -4 26 -10 3 -5 15 -10 26 -10 10 0 19 -6
19 -14 0 -8 11 -13 26 -13 40 0 75 -23 68 -45 -3 -10 0 -18 6 -18 6 0 8 5 5
10 -11 17 28 11 63 -10 18 -11 39 -20 48 -20 8 0 17 -7 20 -15 4 -8 12 -15 19
-15 19 0 89 -33 107 -50 9 -8 35 -27 59 -42 24 -15 53 -33 64 -40 11 -7 31
-25 44 -40 17 -20 33 -28 57 -28 l34 0 0 144 c0 86 4 147 10 151 6 4 10 96 10
244 0 137 4 241 10 247 5 5 11 88 14 184 3 96 8 234 12 305 3 72 8 211 10 310
3 99 9 184 14 189 6 6 10 76 10 156 0 80 4 150 9 156 8 7 17 110 21 236 0 15
5 30 10 33 6 4 10 37 10 74 0 37 4 71 9 77 16 16 31 300 32 574 0 196 -5 290
-21 400 -6 41 -13 95 -16 120 -4 25 -10 50 -14 55 -4 6 -11 40 -15 77 -3 37
-11 70 -16 73 -5 4 -9 15 -9 26 0 10 -4 27 -9 37 -9 15 -22 49 -25 62 -1 3 -8
16 -16 30 -8 14 -27 51 -42 83 -16 31 -33 57 -38 57 -6 0 -10 5 -10 10 0 41
-232 279 -312 320 -31 17 -65 30 -76 30 -10 0 -22 4 -27 9 -20 18 -132 50
-198 57 -37 4 -70 11 -73 15 -3 5 -23 9 -44 9 -21 0 -42 5 -45 10 -3 6 -39 10
-80 10 -44 0 -77 5 -81 11 -5 8 -33 10 -89 6 -45 -3 -86 -2 -91 3 -5 5 -67 11
-139 14 -173 6 -226 14 -252 38 -45 42 -114 68 -177 68 -61 0 -121 -15 -147
-37 -8 -6 -30 -18 -49 -27 -19 -8 -51 -25 -70 -37 -28 -16 -46 -19 -94 -16
-32 3 -62 10 -65 15 -3 5 -14 11 -23 13 -47 10 -203 174 -203 214 0 7 -7 21
-16 32 -29 34 -44 79 -66 211 -3 18 -9 35 -14 38 -15 9 -11 110 5 123 9 8 44
12 93 10 43 -1 87 1 98 5 11 4 34 13 50 19 61 23 154 99 212 172 32 41 65 75
74 75 17 0 27 -38 33 -130 4 -64 16 -132 26 -155 5 -11 11 -40 15 -65 3 -25
16 -63 28 -84 19 -34 30 -41 87 -58 36 -11 73 -23 82 -29 30 -16 245 -10 340
9 48 10 90 21 94 25 4 4 21 7 38 7 17 0 55 9 84 19 28 11 52 17 52 13 0 -3 5
-1 12 6 7 7 20 12 30 12 9 0 32 8 50 18 18 10 46 22 62 26 15 4 51 22 79 41
29 19 57 35 63 35 6 0 18 7 25 16 8 9 30 27 49 39 23 15 42 38 54 66 10 24 22
51 26 60 5 10 4 32 -2 53 -10 30 -9 39 7 56 10 11 23 20 29 20 5 0 21 11 35
24 52 49 129 81 226 93 22 3 51 14 64 24 13 11 30 19 37 19 21 0 140 116 154
150 7 16 10 42 7 57 -19 93 -17 88 -56 176 -12 26 -29 67 -38 90 -9 23 -20 46
-25 52 -4 5 -8 16 -8 24 0 7 -11 37 -24 65 -26 56 -63 142 -96 226 -12 30 -28
69 -35 85 -7 17 -21 50 -31 75 -10 25 -21 47 -25 50 -4 3 -14 26 -22 51 -9 26
-48 109 -86 186 -39 78 -71 146 -71 152 0 6 -4 11 -9 11 -5 0 -12 12 -16 28
-3 15 -17 41 -29 57 -13 17 -26 41 -31 54 -7 24 -31 61 -77 122 -16 20 -28 38
-28 42 0 11 -87 135 -118 168 -18 19 -32 41 -32 50 0 8 -4 19 -9 25 -5 5 -11
29 -14 54 -8 75 -36 182 -61 235 -37 77 -72 155 -92 205 -10 25 -26 54 -36 66
-10 11 -18 25 -18 31 0 6 -8 25 -17 42 -15 25 -16 34 -5 48 6 10 15 25 18 33
8 20 53 112 64 130 4 8 15 31 24 50 8 19 31 51 50 69 20 19 36 42 36 51 0 9
20 36 45 60 25 24 45 49 45 55 0 13 182 195 227 227 18 13 59 44 93 71 33 26
66 47 73 47 6 0 29 18 51 40 21 22 44 40 51 40 22 0 70 29 100 60 16 16 39 30
51 30 30 0 94 38 94 56 0 8 6 14 14 14 19 0 29 30 15 46 -18 21 -42 17 -120
-21 -40 -19 -77 -35 -82 -35 -10 0 -48 -16 -135 -56 -28 -13 -53 -23 -55 -21
-1 1 -13 -8 -27 -20 -23 -23 -41 -28 -52 -17 -9 8 18 57 44 81 13 11 52 56 88
99 100 120 332 347 425 416 17 13 35 27 40 33 16 18 83 65 92 65 4 0 26 16 48
34 37 32 39 36 24 51 -14 15 -22 15 -52 6 -20 -7 -46 -20 -59 -30 -35 -27
-127 -91 -132 -91 -7 0 -141 -89 -172 -115 -18 -14 -35 -25 -39 -25 -4 0 -24
-14 -44 -30 -40 -34 -43 -36 -89 -69 -18 -13 -36 -20 -39 -17 -4 3 -1 6 5 6 7
0 12 5 12 11 0 5 21 42 47 82 27 40 52 80 58 89 18 30 82 122 102 145 10 12
29 39 43 59 71 101 325 366 405 419 16 11 46 35 66 53 20 17 41 32 46 32 6 0
18 9 28 20 10 11 23 20 28 20 6 0 25 11 43 25 18 14 37 25 42 25 5 0 17 9 28
21 26 28 8 52 -47 63 -70 14 -330 19 -342 7 -6 -6 -54 -11 -108 -11 -54 0
-100 -4 -103 -9 -3 -4 -36 -11 -73 -15 -71 -7 -82 -10 -198 -47 -63 -20 -99
-33 -160 -60 -59 -26 -75 -29 -75 -14 0 8 10 20 22 26 12 6 37 26 55 44 18 17
48 40 68 51 38 20 54 49 36 67 -13 13 -151 -50 -217 -99 -23 -18 -52 -35 -65
-39 -13 -4 -42 -23 -64 -42 -54 -46 -63 -53 -70 -53 -15 0 -205 -147 -205
-159 0 -11 -39 -21 -45 -12 -2 4 11 32 30 62 18 30 45 73 59 95 14 23 26 46
26 51 0 6 9 18 20 28 11 10 20 23 20 28 0 6 10 21 21 33 21 22 20 54 0 54 -15
0 -101 -82 -101 -96 0 -6 -7 -17 -15 -24 -50 -41 -305 -418 -331 -488 -10 -26
-26 -56 -36 -67 -10 -12 -21 -35 -24 -53 -7 -36 -33 -43 -41 -12 -3 11 -9 20
-14 20 -5 0 -9 9 -9 20 0 12 -7 34 -15 50 -9 17 -14 49 -12 76 2 46 1 48 -38
68 -30 16 -42 30 -50 58 -6 21 -18 47 -27 58 -10 11 -20 31 -24 45 -3 14 -9
25 -14 25 -4 0 -21 27 -38 59 -32 62 -97 153 -113 159 -5 2 -9 9 -9 16 0 7
-16 27 -35 46 -19 19 -35 38 -35 44 0 27 -309 336 -337 336 -5 0 -18 9 -29 21
-10 11 -37 33 -59 48 -22 15 -64 44 -92 64 -29 20 -56 37 -61 37 -4 0 -31 16
-59 35 -29 19 -56 35 -60 35 -5 0 -33 16 -63 35 -30 19 -60 33 -67 30 -7 -2
-13 0 -13 4 0 5 -23 21 -52 35 l-52 26 -1262 0 c-864 0 -1265 -3 -1269 -10z
m4725 -875 c0 -9 -12 -20 -26 -25 -42 -16 -49 -12 -24 15 26 28 50 33 50 10z
m-460 -223 c0 -5 -11 -19 -25 -32 -28 -27 -36 -8 -8 22 17 19 33 24 33 10z
m-3167 -656 c47 -63 83 -117 80 -120 -12 -12 -114 -6 -117 7 -2 6 -9 37 -15
67 -7 30 -16 66 -21 80 -12 35 -21 80 -16 80 2 0 42 -51 89 -114z m-2366 2
c-3 -7 -5 -2 -5 12 0 14 2 19 5 13 2 -7 2 -19 0 -25z m1713 -221 c0 -16 -51
-47 -79 -47 -13 0 -81 146 -81 174 -1 12 -7 32 -15 46 -30 53 -12 40 80 -56
52 -54 94 -107 95 -117z m-1727 5 c-3 -100 -10 -182 -15 -182 -4 0 -8 12 -8
28 0 44 23 342 26 339 2 -2 1 -85 -3 -185z m2172 99 c3 -5 1 -12 -5 -16 -5 -3
-10 1 -10 9 0 18 6 21 15 7z m3869 -336 c-6 -16 -34 -21 -34 -7 0 13 11 22 26
22 8 0 11 -6 8 -15z m-6377 -67 c-16 -61 -38 -224 -43 -320 -7 -113 -24 -149
-24 -50 0 124 23 312 45 380 8 22 27 13 22 -10z m603 -161 c0 -25 33 -293 41
-333 1 -5 1 -14 0 -21 -2 -16 -82 -73 -94 -66 -14 8 9 359 29 438 8 33 24 22
24 -18z m2862 -264 c27 -25 22 -35 -14 -28 -54 12 -80 24 -73 35 10 16 67 12
87 -7z m873 -104 c8 -23 1 -34 -14 -24 -13 8 -15 45 -2 45 5 0 13 -9 16 -21z
m12 -113 c-4 -9 -11 -16 -16 -16 -13 0 -24 37 -15 51 10 16 38 -16 31 -35z m1
-80 c3 -12 -1 -17 -10 -14 -7 3 -15 13 -16 22 -3 12 1 17 10 14 7 -3 15 -13
16 -22z m-5 -74 c-2 -17 2 -34 7 -37 6 -3 7 -17 4 -30 -3 -13 -1 -33 6 -44 9
-17 8 -22 -5 -27 -22 -9 -22 -7 -28 67 -3 36 -7 70 -8 75 -4 22 2 35 14 31 7
-2 11 -17 10 -35z m505 -85 c80 -45 147 -231 159 -444 8 -142 -6 -215 -60
-313 -59 -109 -86 -146 -168 -231 -41 -41 -96 -107 -122 -147 -86 -129 -141
-167 -219 -154 l-43 8 -7 179 c-7 158 -24 467 -45 793 -3 56 -2 102 2 102 5 0
22 -12 37 -27 39 -38 36 -9 -6 41 -37 46 -54 86 -36 86 7 0 35 -25 64 -55 28
-30 58 -55 66 -55 8 0 31 21 50 47 61 81 122 143 159 163 42 22 134 26 169 7z
m-1948 -305 c0 -17 -46 -50 -80 -57 -19 -4 -54 -13 -78 -21 -54 -18 -63 -18
-56 0 10 25 84 70 127 77 62 10 87 10 87 1z m-2100 -1468 c0 -24 27 -120 41
-146 5 -10 9 -24 9 -31 0 -8 11 -35 25 -61 14 -26 25 -53 25 -61 0 -7 16 -37
35 -66 19 -30 35 -57 35 -61 0 -4 15 -28 33 -54 17 -25 37 -53 42 -62 14 -23
175 -182 185 -182 4 0 28 -19 53 -42 60 -56 123 -109 151 -128 53 -35 108 -80
127 -105 12 -14 36 -32 55 -40 19 -8 42 -21 50 -30 9 -8 22 -15 30 -15 8 0 14
-4 14 -9 0 -5 17 -17 38 -26 20 -10 45 -24 54 -32 18 -16 52 -36 138 -80 30
-15 64 -36 74 -45 11 -10 26 -18 33 -18 7 0 13 -5 13 -10 0 -6 3 -9 8 -8 15 3
61 -22 71 -39 6 -10 11 -14 11 -10 0 5 27 -6 60 -24 56 -30 68 -32 151 -31 51
0 96 5 102 11 6 6 19 11 29 11 20 0 22 1 150 69 67 36 78 38 78 12 0 -11 5
-23 10 -26 6 -3 10 -16 10 -29 0 -12 4 -26 10 -32 5 -5 12 -42 16 -82 4 -40
11 -75 15 -78 5 -3 9 -18 9 -34 0 -16 5 -32 10 -35 6 -3 10 -27 11 -53 0 -26
4 -56 8 -67 5 -11 5 -27 1 -35 -4 -8 -15 -31 -24 -50 -28 -59 -60 -98 -89
-111 -16 -7 -34 -17 -40 -23 -7 -6 -28 -17 -47 -23 -34 -13 -35 -12 -85 35
-47 45 -60 53 -128 81 -50 20 -102 13 -176 -24 -38 -19 -76 -35 -85 -35 -8 0
-18 -4 -21 -10 -3 -5 -16 -10 -29 -10 -12 0 -26 -4 -31 -9 -13 -12 -98 -32
-160 -38 -27 -3 -54 -9 -60 -14 -5 -5 -52 -9 -105 -9 -53 0 -100 -3 -104 -7
-11 -12 -56 -14 -56 -3 0 6 -49 10 -134 10 -79 0 -137 4 -141 10 -3 6 -48 10
-99 10 -117 0 -149 10 -164 54 -7 18 -12 41 -12 52 0 11 -4 24 -9 30 -6 5 -14
34 -20 64 -5 30 -15 75 -21 100 -6 25 -14 59 -17 75 -3 17 -9 35 -13 40 -4 6
-10 41 -14 80 -4 38 -11 74 -15 80 -8 9 -12 30 -27 140 -3 22 -8 47 -12 55 -3
8 -7 29 -8 45 -2 17 -8 64 -14 105 -6 41 -13 102 -16 135 -3 33 -9 69 -14 80
-15 36 -49 490 -55 749 -4 158 -3 177 10 160 8 -10 15 -29 15 -40z m4270 -927
c0 -29 -7 -37 -26 -30 -17 6 -18 25 -2 41 18 18 28 14 28 -11z m-562 -315 c2
-14 -2 -22 -12 -22 -19 0 -29 17 -22 36 8 22 30 12 34 -14z m-3774 -164 c31
-69 46 -115 39 -122 -16 -16 -43 -4 -49 22 -3 15 -10 43 -15 62 -10 38 -12 90
-4 90 3 0 16 -24 29 -52z m41 -168 c3 -5 1 -10 -4 -10 -6 0 -11 5 -11 10 0 6
2 10 4 10 3 0 8 -4 11 -10z m15 -45 c0 -9 14 -42 30 -75 17 -33 30 -66 30 -75
0 -8 4 -23 9 -33 44 -89 71 -149 71 -160 0 -7 5 -21 12 -31 25 -41 -39 -65
-68 -26 -8 10 -14 31 -14 46 0 15 -4 31 -10 34 -5 3 -10 19 -10 35 0 16 -4 31
-9 35 -6 3 -13 37 -17 75 -4 39 -11 73 -15 76 -5 3 -9 18 -9 34 0 16 -4 32
-10 35 -5 3 -10 15 -10 26 0 10 5 19 10 19 6 0 10 -7 10 -15z m416 -4356 c7
-5 16 -9 20 -8 17 3 74 -14 74 -22 0 -7 -13 -11 -90 -22 -14 -3 -1 -5 29 -6
40 -1 57 3 66 16 11 15 16 14 56 -8 24 -13 53 -32 63 -41 11 -10 29 -18 40
-18 19 0 19 0 1 -14 -18 -13 -22 -11 -44 11 -20 19 -32 23 -57 18 -18 -3 -35
-1 -38 4 -4 5 4 12 16 14 13 3 3 2 -22 -1 -25 -2 -64 -4 -87 -3 -24 1 -43 -3
-43 -9 0 -5 8 -10 18 -11 11 0 13 -2 4 -6 -8 -3 -27 4 -43 16 -16 12 -43 23
-59 24 -17 1 -30 5 -30 9 0 4 -7 5 -15 2 -8 -4 -22 -1 -30 6 -9 7 -19 10 -22
6 -4 -4 -1 -11 6 -15 11 -7 9 -11 -7 -20 -26 -14 -35 -14 -27 -1 4 6 -8 10
-29 10 -20 0 -36 -4 -36 -10 0 -5 6 -10 14 -10 8 0 16 -6 18 -12 4 -10 10 -10
31 -1 24 11 27 11 27 -7 0 -22 1 -22 -58 -11 -23 5 -45 5 -47 0 -9 -14 16 -22
69 -21 30 1 46 -2 38 -7 -7 -4 -41 -9 -74 -10 -34 -1 -65 -4 -69 -7 -4 -2 -10
0 -14 6 -3 5 -1 10 4 10 6 0 11 7 11 15 0 8 -2 15 -4 15 -2 0 -13 3 -23 6 -15
5 -15 4 -3 -5 12 -8 8 -11 -17 -11 -32 0 -43 -15 -25 -36 5 -5 3 -20 -4 -34
l-14 -25 0 33 c0 22 -6 35 -17 39 -10 3 -26 13 -35 21 -10 8 -18 10 -18 4 0
-6 -12 -15 -27 -20 l-28 -11 24 -7 25 -7 -23 -9 c-26 -9 -73 0 -65 13 3 5 -18
8 -46 7 -58 -3 -80 -18 -26 -18 20 0 36 -5 36 -11 0 -7 -9 -9 -22 -5 -45 13
-124 18 -108 7 8 -5 17 -8 20 -6 3 2 6 -12 6 -31 0 -37 -10 -42 -40 -19 -16
12 -21 12 -32 0 -8 -7 -14 -18 -14 -24 0 -17 -30 -13 -36 4 -8 19 -24 20 -24
2 0 -9 -12 -14 -31 -14 -18 0 -37 -7 -44 -16 -16 -22 -25 -22 -25 1 -1 13 -6
10 -27 -13 -15 -16 -32 -29 -38 -27 -7 1 -18 -10 -24 -26 -7 -16 -20 -28 -32
-29 -29 -2 -49 -22 -49 -47 -1 -20 -2 -20 -15 4 l-15 25 3 -35 c1 -25 -2 -35
-15 -38 -15 -3 -17 6 -12 95 7 142 4 136 76 162 35 12 70 23 78 23 8 0 20 4
26 9 5 5 23 6 39 3 16 -3 40 -1 54 5 14 6 64 12 111 14 47 3 92 7 100 10 8 3
40 10 70 17 104 21 125 27 145 38 36 21 97 42 121 42 12 0 25 4 28 9 3 5 16 7
29 4 15 -3 18 -2 9 5 -11 7 -11 10 0 18 17 12 54 11 51 -2 -1 -6 11 -8 30 -5
26 4 28 6 9 9 -12 2 -20 7 -17 12 3 5 21 6 40 3 22 -3 35 -2 35 5 0 14 150 15
166 1z m-141 -89 c-3 -5 -13 -10 -21 -10 -8 0 -14 5 -14 10 0 6 9 10 21 10 11
0 17 -4 14 -10z m232 -16 c-3 -3 -12 -4 -19 -1 -8 3 -5 6 6 6 11 1 17 -2 13
-5z m46 -11 c-7 -2 -19 -2 -25 0 -7 3 -2 5 12 5 14 0 19 -2 13 -5z m-126 -19
c-3 -3 -12 -4 -19 -1 -8 3 -5 6 6 6 11 1 17 -2 13 -5z m308 -4 c3 -5 1 -10 -4
-10 -6 0 -11 5 -11 10 0 6 2 10 4 10 3 0 8 -4 11 -10z m-35 -21 c0 -5 -9 -9
-20 -9 -19 0 -26 11 -14 23 8 8 34 -3 34 -14z m130 -28 c0 -4 -11 -6 -25 -3
-25 4 -36 -13 -12 -21 6 -2 10 -7 7 -10 -3 -3 -20 1 -38 10 -24 12 -30 18 -20
24 17 11 88 11 88 0z m4475 -11 c-3 -5 -11 -10 -16 -10 -6 0 -7 5 -4 10 3 6
11 10 16 10 6 0 7 -4 4 -10z m-584 -16 c-18 -8 -38 -14 -44 -14 -5 0 -15 -6
-21 -14 -9 -12 -13 -13 -23 -1 -10 10 -6 16 17 27 16 8 46 14 67 15 l38 1 -34
-14z m422 9 c-7 -2 -19 -2 -25 0 -7 3 -2 5 12 5 14 0 19 -2 13 -5z m107 -3 c0
-5 -4 -10 -10 -10 -5 0 -10 5 -10 10 0 6 5 10 10 10 6 0 10 -4 10 -10z m-5385
-10 c-3 -5 -12 -10 -18 -10 -7 0 -6 4 3 10 19 12 23 12 15 0z m-115 -4 c0 -3
-4 -8 -10 -11 -5 -3 -10 -1 -10 4 0 6 5 11 10 11 6 0 10 -2 10 -4z m4820 -26
c0 -15 -26 -23 -41 -14 -9 5 -7 10 7 15 27 11 34 10 34 -1z m915 0 c-28 -12
-37 -12 -30 0 3 6 16 10 28 9 21 0 21 -1 2 -9z m-5645 -15 c0 -8 -7 -15 -15
-15 -26 0 -18 20 13 29 1 1 2 -6 2 -14z m77 9 c-3 -3 -12 -4 -19 -1 -8 3 -5 6
6 6 11 1 17 -2 13 -5z m5020 0 c-3 -3 -12 -4 -19 -1 -8 3 -5 6 6 6 11 1 17 -2
13 -5z m-3967 -14 c0 -5 -7 -7 -15 -4 -8 4 -15 8 -15 10 0 2 7 4 15 4 8 0 15
-4 15 -10z m-1200 -19 c0 -4 -17 -5 -37 -3 -30 4 -34 6 -18 12 21 7 55 2 55
-9z m4750 -11 c0 -5 -4 -10 -10 -10 -5 0 -10 5 -10 10 0 6 5 10 10 10 6 0 10
-4 10 -10z m997 -32 c-3 -7 -5 -2 -5 12 0 14 2 19 5 13 2 -7 2 -19 0 -25z
m-1229 -58 c13 0 11 -4 -6 -16 -27 -19 -28 -18 -38 21 -7 28 -7 29 10 12 10
-9 25 -17 34 -17z m42 26 c0 -3 -4 -8 -10 -11 -5 -3 -10 -1 -10 4 0 6 5 11 10
11 6 0 10 -2 10 -4z m1364 -81 c-4 -8 -10 -12 -15 -9 -14 8 -10 24 6 24 9 0
12 -6 9 -15z"/>
<path d="M7385 8147 c-55 -22 -74 -37 -117 -95 -67 -89 -88 -133 -93 -203 -5
-61 -5 -63 9 -34 7 17 22 55 32 85 18 57 60 130 75 130 5 0 19 -14 31 -31 35
-47 80 -71 130 -67 31 2 44 8 46 20 3 15 -3 18 -35 16 -46 -1 -72 11 -107 53
-34 40 -33 61 3 82 48 28 85 22 120 -20 28 -35 30 -36 31 -14 0 25 -59 91 -81
90 -8 0 -27 -6 -44 -12z"/>
<path d="M7390 7790 c0 -12 11 -41 25 -65 60 -101 53 -159 -28 -239 -42 -42
-67 -57 -133 -80 -44 -16 -95 -41 -114 -57 -18 -16 -36 -29 -40 -29 -8 0 4 77
20 125 6 17 33 54 61 82 66 68 69 103 13 166 -44 48 -54 55 -54 33 0 -9 16
-33 35 -55 19 -21 35 -45 35 -53 0 -8 -23 -41 -51 -73 -27 -32 -57 -67 -64
-79 -15 -22 -42 -213 -32 -223 3 -3 30 19 59 49 32 34 69 60 93 68 75 24 185
81 204 106 10 13 34 53 52 88 30 59 32 66 21 102 -14 48 -72 146 -89 152 -8 2
-13 -5 -13 -18z"/>
<path d="M3749 512 c11 -8 9 -11 -10 -15 -22 -5 -22 -5 -1 -4 25 2 32 19 10
25 -10 3 -9 1 1 -6z"/>
<path d="M3383 416 c0 -8 6 -12 14 -9 7 3 13 9 13 14 0 5 -6 9 -13 9 -8 0 -14
-6 -14 -14z"/>
<path d="M3420 426 c0 -2 7 -7 16 -10 8 -3 12 -2 9 4 -6 10 -25 14 -25 6z"/>
<path d="M2992 335 c-17 -19 -1 -19 24 0 14 11 15 14 4 14 -8 0 -21 -6 -28
-14z"/>
<path d="M2691 184 c0 -11 3 -14 6 -6 3 7 2 16 -1 19 -3 4 -6 -2 -5 -13z"/>
<path d="M5745 8859 c-61 -10 -119 -27 -90 -27 33 0 153 22 161 31 8 8 -2 8
-71 -4z"/>
<path d="M5480 8800 c-13 -9 -13 -10 0 -9 8 0 24 4 35 9 l20 9 -20 0 c-11 0
-27 -4 -35 -9z"/>
<path d="M3720 7850 c-25 -4 -63 -13 -85 -19 -22 -6 -64 -11 -92 -11 -41 0
-53 -4 -53 -15 0 -9 -17 -23 -37 -32 -21 -9 -63 -29 -94 -45 -31 -15 -69 -28
-83 -28 -17 0 -25 -4 -21 -11 4 -5 0 -18 -9 -28 -9 -10 -14 -25 -10 -34 4 -11
-11 -38 -43 -79 -27 -35 -53 -69 -57 -76 -9 -15 179 -222 201 -222 12 0 11 6
-5 34 -22 37 -41 176 -24 176 6 0 18 -25 27 -56 27 -94 75 -184 125 -236 42
-43 51 -48 91 -48 78 0 145 26 199 78 52 50 47 36 64 204 4 37 -7 58 -19 38
-7 -11 -54 -13 -79 -4 -16 6 -22 50 -8 70 4 7 25 20 47 31 l40 18 -4 55 c-2
30 -12 72 -23 94 -16 32 -17 41 -6 51 18 19 120 1 175 -30 24 -13 43 -21 43
-18 0 20 -43 69 -82 95 -27 16 -48 32 -48 34 0 3 10 9 23 14 28 11 -86 11
-153 0z m5 -600 c0 -19 -63 -60 -91 -60 -31 0 -30 10 4 42 39 37 87 47 87 18z"/>
<path d="M3438 6695 c2 -19 6 -35 8 -35 2 0 4 16 4 35 0 19 -4 35 -8 35 -4 0
-6 -16 -4 -35z"/>
<path d="M4421 6114 c0 -11 3 -14 6 -6 3 7 2 16 -1 19 -3 4 -6 -2 -5 -13z"/>
<path d="M7550 4430 c0 -5 5 -10 10 -10 6 0 10 5 10 10 0 6 -4 10 -10 10 -5 0
-10 -4 -10 -10z"/>
<path d="M4670 4296 c0 -17 14 -29 23 -20 8 8 -3 34 -14 34 -5 0 -9 -6 -9 -14z"/>
<path d="M4701 4241 c-1 -7 9 -30 21 -50 19 -30 23 -33 26 -17 2 11 -5 26 -16
35 -11 9 -22 23 -25 31 -4 11 -6 12 -6 1z"/>
<path d="M7055 3860 c-3 -5 -1 -10 4 -10 6 0 11 5 11 10 0 6 -2 10 -4 10 -3 0
-8 -4 -11 -10z"/>
<path d="M5350 3711 c0 -6 4 -13 10 -16 6 -3 7 1 4 9 -7 18 -14 21 -14 7z"/>
<path d="M6695 3630 c-3 -5 1 -10 9 -10 9 0 16 5 16 10 0 6 -4 10 -9 10 -6 0
-13 -4 -16 -10z"/>
<path d="M5395 3560 c3 -5 8 -10 11 -10 2 0 4 5 4 10 0 6 -5 10 -11 10 -5 0
-7 -4 -4 -10z"/>
<path d="M8113 3075 c0 -33 2 -45 4 -27 2 18 2 45 0 60 -2 15 -4 0 -4 -33z"/>
<path d="M4161 2924 c0 -11 3 -14 6 -6 3 7 2 16 -1 19 -3 4 -6 -2 -5 -13z"/>
<path d="M8133 2760 c0 -25 2 -35 4 -22 2 12 2 32 0 45 -2 12 -4 2 -4 -23z"/>
<path d="M8147 2569 c3 -24 7 -46 9 -48 9 -10 3 65 -5 78 -6 10 -8 -1 -4 -30z"/>
<path d="M4050 2451 c0 -6 5 -13 10 -16 6 -3 10 1 10 9 0 9 -4 16 -10 16 -5 0
-10 -4 -10 -9z"/>
<path d="M8170 2421 c0 -26 16 -35 24 -15 10 25 7 34 -9 34 -8 0 -15 -9 -15
-19z"/>
<path d="M4100 2325 c0 -5 5 -17 10 -25 5 -8 10 -10 10 -5 0 6 -5 17 -10 25
-5 8 -10 11 -10 5z"/>
<path d="M4211 2288 c-1 -27 3 -48 7 -48 4 0 6 17 4 38 -5 58 -10 62 -11 10z"/>
<path d="M4167 2165 c8 -25 17 -44 19 -42 6 6 -16 76 -26 82 -5 3 -2 -15 7
-40z"/>
<path d="M4222 2190 c0 -14 2 -19 5 -12 2 6 2 18 0 25 -3 6 -5 1 -5 -13z"/>
<path d="M4232 2110 c0 -14 2 -19 5 -12 2 6 2 18 0 25 -3 6 -5 1 -5 -13z"/>
<path d="M4223 2063 c-16 -6 -16 -39 1 -78 l13 -30 6 43 c8 46 0 72 -20 65z"/>
<path d="M7821 1194 c0 -11 3 -14 6 -6 3 7 2 16 -1 19 -3 4 -6 -2 -5 -13z"/>
<path d="M9261 1014 c0 -11 3 -14 6 -6 3 7 2 16 -1 19 -3 4 -6 -2 -5 -13z"/>
<path d="M6018 714 c-5 -4 -8 -19 -8 -33 0 -18 3 -22 11 -14 6 6 9 21 7 33 -1
12 -6 18 -10 14z"/>
<path d="M4542 645 c0 -16 2 -22 5 -12 2 9 2 23 0 30 -3 6 -5 -1 -5 -18z"/>
<path d="M4553 589 c3 -9 9 -37 12 -63 4 -25 11 -48 15 -51 5 -3 7 1 6 7 -2 7
-6 31 -11 53 -4 22 -12 47 -17 55 -8 13 -9 13 -5 -1z"/>
<path d="M6002 570 c0 -19 2 -27 5 -17 2 9 2 25 0 35 -3 9 -5 1 -5 -18z"/>
<path d="M5977 372 c-21 -168 -37 -365 -31 -371 14 -15 19 19 45 352 6 81 9
150 7 153 -3 2 -12 -58 -21 -134z"/>
<path d="M4592 430 c0 -14 2 -19 5 -12 2 6 2 18 0 25 -3 6 -5 1 -5 -13z"/>
<path d="M8210 439 c0 -5 5 -7 10 -4 6 3 10 8 10 11 0 2 -4 4 -10 4 -5 0 -10
-5 -10 -11z"/>
<path d="M8536 442 c-12 -20 11 -29 59 -22 l50 7 -43 2 c-26 0 -41 5 -37 11 3
6 -1 10 -9 10 -8 0 -17 -4 -20 -8z"/>
<path d="M8248 433 c6 -2 18 -2 25 0 6 3 1 5 -13 5 -14 0 -19 -2 -12 -5z"/>
<path d="M7920 419 c0 -5 5 -7 10 -4 6 3 10 8 10 11 0 2 -4 4 -10 4 -5 0 -10
-5 -10 -11z"/>
<path d="M8058 423 c7 -3 16 -2 19 1 4 3 -2 6 -13 5 -11 0 -14 -3 -6 -6z"/>
<path d="M7861 390 l-23 -20 23 0 c13 0 31 5 39 10 13 8 12 10 -3 10 -10 0
-15 5 -12 10 9 14 3 12 -24 -10z"/>
<path d="M7980 383 c0 -7 -12 -9 -30 -7 -22 4 -30 1 -30 -9 0 -8 -8 -18 -17
-21 -15 -6 -15 -8 -3 -16 11 -7 5 -10 -22 -10 -28 0 -38 -4 -38 -16 0 -9 5
-12 12 -8 7 5 25 7 40 6 15 -1 28 2 28 8 0 5 14 10 31 10 16 0 28 4 24 9 -3 5
2 17 11 26 13 12 14 19 5 28 -8 8 -11 8 -11 0z"/>
<path d="M8790 375 c0 -7 17 -15 38 -18 20 -4 50 -10 67 -13 26 -6 28 -5 15 7
-21 20 -120 40 -120 24z"/>
<path d="M7783 333 c9 -2 25 -2 35 0 9 3 1 5 -18 5 -19 0 -27 -2 -17 -5z"/>
<path d="M7650 320 c0 -5 5 -10 10 -10 6 0 10 5 10 10 0 6 -4 10 -10 10 -5 0
-10 -4 -10 -10z"/>
<path d="M7760 310 c0 -5 14 -10 30 -10 17 0 30 5 30 10 0 6 -13 10 -30 10
-16 0 -30 -4 -30 -10z"/>
<path d="M7760 272 c0 -4 14 -9 30 -10 17 -1 30 2 30 8 0 5 -13 10 -30 10 -16
0 -30 -4 -30 -8z"/>
<path d="M9185 221 c-2 -5 4 -11 15 -14 11 -3 20 -2 20 3 0 12 -28 21 -35 11z"/>
<path d="M9148 168 c8 -8 18 -8 34 -1 21 9 20 10 -11 11 -25 0 -31 -2 -23 -10z"/>
<path d="M7630 155 c-7 -9 -10 -18 -7 -21 3 -3 10 4 17 15 13 25 8 27 -10 6z"/>
<path d="M7590 100 c0 -5 7 -10 16 -10 8 0 12 5 9 10 -3 6 -10 10 -16 10 -5 0
-9 -4 -9 -10z"/>
</g>
</svg>
